<?xml version="1.0" standalone="no"?>
<!DOCTYPE svg PUBLIC "-//W3C//DTD SVG 20010904//EN"
 "http://www.w3.org/TR/2001/REC-SVG-20010904/DTD/svg10.dtd">
<svg version="1.0" xmlns="http://www.w3.org/2000/svg"
 width="500.000000pt" height="500.000000pt" viewBox="0 0 500.000000 500.000000"
 preserveAspectRatio="xMidYMid meet">
<metadata>
Created by potrace 1.16, written by Peter Selinger 2001-2019
</metadata>
<g transform="translate(0.000000,500.000000) scale(0.100000,-0.100000)"
fill="#fff" stroke="none">
<path d="M2250 3923 c-471 -15 -845 -164 -1125 -447 -156 -157 -253 -314 -323
-521 -129 -381 -113 -918 43 -1447 53 -180 71 -221 102 -240 17 -9 75 -20 148
-27 152 -15 285 -33 554 -77 117 -19 215 -33 217 -31 3 2 -3 82 -11 177 -15
174 -20 189 -56 190 -34 0 -249 74 -323 112 -76 38 -166 94 -166 103 0 3 62 4
138 4 143 0 279 16 451 51 315 66 502 158 664 328 98 103 132 215 94 305 -21
50 -40 43 -49 -17 -9 -66 -44 -119 -140 -212 -147 -144 -306 -231 -543 -299
-217 -62 -498 -102 -628 -90 -61 6 -70 10 -96 42 -68 82 -117 226 -128 374
l-6 86 53 42 c106 84 253 153 402 190 120 29 118 30 118 -26 1 -128 110 -232
244 -233 221 -1 325 274 160 420 -21 18 -52 39 -70 46 -40 17 -131 18 -171 3
-23 -8 -30 -7 -41 8 -40 55 -80 276 -68 375 l7 56 62 25 c73 29 297 87 338 87
22 0 34 -9 57 -42 49 -71 90 -161 115 -252 26 -91 48 -126 78 -126 24 0 36 24
48 98 11 69 -2 136 -41 220 -19 38 -31 50 -65 62 -22 8 -51 24 -63 35 l-22 20
48 7 c76 10 368 9 472 -2 466 -49 809 -260 943 -580 62 -146 74 -218 74 -425
-1 -162 -4 -203 -23 -278 -51 -204 -138 -313 -290 -362 -44 -14 -83 -16 -229
-13 l-175 3 6 -70 c3 -38 8 -118 12 -177 l7 -108 31 -4 c17 -3 108 -12 201
-21 94 -9 226 -25 295 -35 136 -21 371 -67 378 -75 5 -5 62 23 62 30 0 2 16
89 35 193 61 334 78 494 79 727 1 214 -9 312 -45 475 -161 711 -695 1202
-1434 1320 -85 14 -302 26 -405 23z m-697 -924 c22 -98 57 -181 111 -268 55
-88 50 -93 -101 -108 -141 -14 -316 -52 -403 -86 l-62 -25 7 26 c28 113 111
261 204 364 46 50 203 178 220 178 3 0 14 -37 24 -81z"/>
</g>
</svg>
