<?xml version="1.0" standalone="no"?>
<!DOCTYPE svg PUBLIC "-//W3C//DTD SVG 20010904//EN"
 "http://www.w3.org/TR/2001/REC-SVG-20010904/DTD/svg10.dtd">
<svg version="1.0" xmlns="http://www.w3.org/2000/svg"
 width="500.000000pt" height="500.000000pt" viewBox="0 0 500.000000 500.000000"
 preserveAspectRatio="xMidYMid meet">
<metadata>
Created by potrace 1.16, written by Peter Selinger 2001-2019
</metadata>
<g transform="translate(0.000000,500.000000) scale(0.100000,-0.100000)"
fill="#000000" stroke="none">
<path d="M2290 4579 c-223 -11 -430 -58 -652 -146 -790 -317 -1308 -1082
-1308 -1933 0 -653 310 -1274 831 -1666 93 -70 283 -183 391 -233 267 -123
545 -182 863 -182 385 1 720 90 1042 278 586 341 965 929 1033 1602 64 643
-193 1312 -672 1741 -428 385 -947 567 -1528 539z m258 -730 c546 -60 969
-343 1200 -804 100 -201 150 -411 159 -675 7 -224 -9 -391 -74 -733 -31 -167
-37 -175 -123 -152 -91 24 -354 65 -543 84 -97 10 -180 21 -184 24 -7 8 -22
171 -23 252 l0 50 168 0 c162 0 169 1 224 28 101 50 171 155 205 308 23 107
23 340 -1 444 -75 329 -318 541 -718 626 -106 23 -387 36 -511 24 -76 -7 -78
-7 -61 -26 9 -10 34 -24 54 -29 33 -9 41 -17 64 -70 33 -74 41 -140 24 -205
-10 -39 -18 -51 -35 -53 -27 -4 -47 31 -75 132 -18 67 -66 164 -106 214 l-18
23 -79 -16 c-85 -18 -250 -68 -275 -85 -12 -7 -15 -30 -13 -107 2 -125 20
-199 48 -195 99 15 114 14 168 -11 150 -68 161 -281 20 -368 -31 -19 -52 -24
-110 -24 -63 0 -76 3 -114 30 -25 18 -53 50 -68 78 -24 48 -24 48 -65 41 -75
-12 -226 -72 -299 -118 -115 -73 -117 -76 -117 -141 0 -113 52 -272 115 -350
l24 -29 118 1 c219 2 527 71 698 156 195 97 374 278 375 380 0 38 18 34 36 -8
43 -104 -19 -226 -179 -349 -179 -137 -481 -223 -825 -235 l-163 -6 67 -44
c76 -50 228 -113 319 -132 33 -7 64 -15 68 -20 7 -5 39 -300 33 -305 0 -1 -82
11 -181 27 -99 16 -256 38 -350 49 -93 11 -188 23 -211 26 -23 2 -50 14 -62
24 -25 24 -83 199 -122 370 -96 421 -91 804 16 1100 139 387 451 656 889 765
162 40 425 55 613 34z"/>
<path d="M1600 3089 c-146 -109 -250 -249 -293 -396 l-15 -51 34 14 c62 26
212 62 309 75 56 7 95 17 95 24 0 6 9 28 19 48 l19 38 -33 72 c-18 40 -40 103
-47 142 -8 38 -19 70 -24 72 -5 2 -34 -16 -64 -38z"/>
</g>
</svg>
